<svg width="324" height="118" viewBox="0 0 324 118" fill="none" xmlns="http://www.w3.org/2000/svg">
<path d="M71.7793 113.702C71.7793 111.359 82.6342 109.392 96.0371 109.392C109.44 109.392 120.306 111.312 120.306 113.702C120.306 116.091 109.486 118 96.0599 118C82.6342 118 71.7793 116.079 71.7793 113.702Z" fill="#B91E4B"/>
<path d="M64.6372 79.6542C64.6359 81.3628 64.5175 83.0691 64.283 84.7607H17.0929C17.5323 88.6145 19.3231 92.1734 22.1318 94.7746C25.0175 97.2096 28.6815 98.4615 32.4154 98.2882C35.1178 98.321 37.7839 97.6478 40.1623 96.3323C42.4265 95.0813 44.3089 93.2126 45.6012 90.933H63.4032C61.3052 97.634 57.1597 103.465 51.5795 107.565C45.9992 111.666 39.2802 113.817 32.4154 113.701C28.1098 113.817 23.8279 113.012 19.8423 111.339C15.8567 109.665 12.2548 107.159 9.26593 103.98C6.22673 100.81 3.84105 97.0456 2.251 92.9106C0.660958 88.7757 -0.100935 84.355 0.0107146 79.9119C-0.00152138 76.2175 0.526122 72.5421 1.5761 69.0079C2.5782 65.6449 4.12309 62.4778 6.14657 59.6382C8.0744 56.9155 10.3847 54.5 13.0023 52.4704C15.703 50.4194 18.7138 48.8368 21.9147 47.7856C25.319 46.666 28.8745 46.1047 32.4496 46.1225C38.3519 46.0289 44.1672 47.588 49.269 50.6316C54.1222 53.5217 58.0823 57.7555 60.6952 62.8474C63.3464 68.0287 64.7009 73.8038 64.6372 79.6542ZM32.3697 60.8095C28.9186 60.6965 25.5383 61.828 22.8174 64.0068C20.15 66.2907 18.2974 69.4172 17.5499 72.8963H47.7836C47.1094 70.4921 45.9666 68.2529 44.4243 66.3141C42.9909 64.5676 41.1952 63.1711 39.1682 62.2266C37.026 61.2646 34.7083 60.7815 32.3697 60.8095Z" fill="#ED1D4A"/>
<path d="M177.196 105.807C171.864 111.069 164.772 113.697 155.921 113.689C147.069 113.681 139.97 111.034 134.622 105.748C129.29 100.454 126.624 93.4972 126.624 84.877V59.1104H143.512V82.8626C143.512 87.4537 144.613 91.0298 146.814 93.5909C149.244 96.0655 152.53 97.4544 155.955 97.4544C159.38 97.4544 162.666 96.0655 165.096 93.5909C167.29 91.022 168.387 87.4459 168.387 82.8626V47.8902H185.24V84.877C185.24 93.5752 182.559 100.552 177.196 105.807Z" fill="#ED1D4A"/>
<path d="M255.945 113.689H235.481L215.462 83.0973V113.689H198.574V26.5395H215.462V78.1196L235.321 47.8907H254.871L232.579 80.1341L255.945 113.689Z" fill="#ED1D4A"/>
<path d="M324 113.689H303.513L283.506 83.0973V113.689H266.618V26.5395H283.506V78.1196L303.365 47.8907H322.926L300.622 80.1341L324 113.689Z" fill="#ED1D4A"/>
<path fill-rule="evenodd" clip-rule="evenodd" d="M74.2812 74.2548L97.9906 30.1587C96.1053 27.3009 93.0545 26.7973 90.1636 26.0009L88.9182 28.4253L79.0917 23.1314L90.8721 0L100.71 5.25874L99.4874 7.67144L129.778 23.8693L131.012 21.4566L140.839 26.7153L129.07 49.8585L119.22 44.5997L120.454 42.1753C118.249 40.0086 115.884 38.0409 112.719 38.0526L112.616 37.9941L90.575 82.9452L74.2812 74.2548Z" fill="#ED1D4A"/>
</svg>
