<svg width="237" height="25" viewBox="0 0 237 25" fill="none" xmlns="http://www.w3.org/2000/svg">
<path d="M72.0056 22.7209H66.9155L61.3771 14.1256L59.4828 15.4372V22.7209H55V2.32093H59.4828V11.6558C59.7816 11.2558 60.0756 10.8558 60.3649 10.4558C60.6541 10.0558 60.9481 9.65581 61.2469 9.25581L66.9733 2.32093H71.9477L64.5729 11.3488L72.0056 22.7209Z" fill="white"/>
<path d="M87.6085 22.7209L86.0756 17.8651H78.3682L76.8354 22.7209H72.0056L79.4672 2.23721H84.9477L92.4383 22.7209H87.6085ZM85.0056 14.2372L83.4727 9.49302C83.3763 9.17674 83.2462 8.77209 83.0823 8.27907C82.9281 7.77674 82.769 7.26977 82.6051 6.75814C82.4509 6.23721 82.3255 5.78605 82.2291 5.40465C82.1327 5.78605 81.9978 6.26047 81.8242 6.82791C81.6604 7.38605 81.5013 7.91628 81.3471 8.4186C81.1928 8.92093 81.0819 9.27907 81.0145 9.49302L79.4961 14.2372H85.0056Z" fill="white"/>
<path d="M95.1135 22.7209V2.32093H99.5962V22.7209H95.1135Z" fill="white"/>
<path d="M111.078 2.32093C112.996 2.32093 114.577 2.54419 115.821 2.9907C117.074 3.43721 118.004 4.11163 118.612 5.01395C119.219 5.91628 119.523 7.05581 119.523 8.43256C119.523 9.36279 119.34 10.1767 118.973 10.8744C118.607 11.5721 118.125 12.1628 117.527 12.6465C116.93 13.1302 116.284 13.5256 115.59 13.8326L121.808 22.7209H116.833L111.786 14.893H109.4V22.7209H104.918V2.32093H111.078ZM110.76 5.86512H109.4V11.3767H110.846C112.331 11.3767 113.392 11.1395 114.028 10.6651C114.674 10.1814 114.997 9.47442 114.997 8.54419C114.997 7.57674 114.65 6.88837 113.956 6.47907C113.271 6.06977 112.206 5.86512 110.76 5.86512Z" fill="white"/>
<path d="M143.657 12.493C143.657 14.0651 143.455 15.4977 143.05 16.7907C142.645 18.0744 142.028 19.1814 141.199 20.1116C140.38 21.0419 139.339 21.7581 138.076 22.2605C136.813 22.7535 135.319 23 133.593 23C131.867 23 130.373 22.7535 129.11 22.2605C127.847 21.7581 126.801 21.0419 125.972 20.1116C125.153 19.1814 124.541 18.0698 124.136 16.7767C123.731 15.4837 123.528 14.0465 123.528 12.4651C123.528 10.3535 123.885 8.51628 124.598 6.95349C125.321 5.3814 126.43 4.16279 127.924 3.29767C129.419 2.43256 131.318 2 133.622 2C135.916 2 137.801 2.43256 139.276 3.29767C140.76 4.16279 141.859 5.3814 142.573 6.95349C143.296 8.52558 143.657 10.3721 143.657 12.493ZM128.228 12.493C128.228 13.9163 128.411 15.1442 128.778 16.1767C129.154 17.2 129.737 17.9907 130.527 18.5488C131.318 19.0977 132.34 19.3721 133.593 19.3721C134.865 19.3721 135.897 19.0977 136.687 18.5488C137.478 17.9907 138.052 17.2 138.408 16.1767C138.775 15.1442 138.958 13.9163 138.958 12.493C138.958 10.3535 138.543 8.66977 137.714 7.44186C136.885 6.21395 135.521 5.6 133.622 5.6C132.359 5.6 131.327 5.87907 130.527 6.43721C129.737 6.98605 129.154 7.77674 128.778 8.8093C128.411 9.83256 128.228 11.0605 128.228 12.493Z" fill="white"/>
<path d="M160.518 17.0558C160.518 18.2651 160.215 19.3163 159.607 20.2093C159 21.1023 158.113 21.7907 156.947 22.2744C155.79 22.7581 154.382 23 152.724 23C151.991 23 151.273 22.9535 150.57 22.8605C149.875 22.7674 149.205 22.6326 148.56 22.4558C147.923 22.2698 147.316 22.0419 146.737 21.7721V17.7535C147.74 18.1814 148.781 18.5674 149.861 18.9116C150.941 19.2558 152.011 19.4279 153.071 19.4279C153.804 19.4279 154.392 19.3349 154.835 19.1488C155.288 18.9628 155.616 18.707 155.819 18.3814C156.021 18.0558 156.122 17.6837 156.122 17.2651C156.122 16.7535 155.944 16.3163 155.587 15.9535C155.231 15.5907 154.739 15.2512 154.112 14.9349C153.495 14.6186 152.796 14.2791 152.016 13.9163C151.524 13.693 150.989 13.4233 150.41 13.107C149.832 12.7814 149.283 12.386 148.762 11.9209C148.241 11.4558 147.812 10.893 147.475 10.2326C147.147 9.56279 146.983 8.76279 146.983 7.83256C146.983 6.61395 147.273 5.57209 147.851 4.70698C148.429 3.84186 149.254 3.1814 150.324 2.72558C151.403 2.26047 152.676 2.02791 154.141 2.02791C155.24 2.02791 156.286 2.15349 157.279 2.40465C158.282 2.64651 159.328 3 160.417 3.46512L158.971 6.82791C157.997 6.44651 157.125 6.15349 156.354 5.94884C155.583 5.73488 154.797 5.62791 153.997 5.62791C153.438 5.62791 152.96 5.71628 152.565 5.89302C152.17 6.06047 151.871 6.30233 151.669 6.6186C151.466 6.92558 151.365 7.28372 151.365 7.69302C151.365 8.17674 151.509 8.58605 151.799 8.92093C152.098 9.24651 152.541 9.56279 153.129 9.86977C153.727 10.1767 154.469 10.5349 155.356 10.9442C156.436 11.4372 157.356 11.9535 158.118 12.493C158.889 13.0233 159.482 13.6512 159.897 14.3767C160.311 15.093 160.518 15.986 160.518 17.0558Z" fill="white"/>
<path d="M171.103 2.32093C173.832 2.32093 175.822 2.88837 177.076 4.02326C178.329 5.14884 178.956 6.70233 178.956 8.68372C178.956 9.57674 178.816 10.4326 178.536 11.2512C178.257 12.0605 177.799 12.7814 177.162 13.414C176.536 14.0465 175.697 14.5488 174.646 14.9209C173.595 15.2837 172.299 15.4651 170.756 15.4651H168.833V22.7209H164.35V2.32093H171.103ZM170.872 5.86512H168.833V11.9209H170.308C171.147 11.9209 171.875 11.814 172.492 11.6C173.109 11.386 173.586 11.0512 173.923 10.5953C174.261 10.1395 174.429 9.55349 174.429 8.83721C174.429 7.83256 174.14 7.08837 173.562 6.60465C172.983 6.11163 172.087 5.86512 170.872 5.86512Z" fill="white"/>
<path d="M195.122 22.7209H182.947V2.32093H195.122V5.86512H187.429V10.3442H194.587V13.8884H187.429V19.1488H195.122V22.7209Z" fill="white"/>
<path d="M212.489 22.7209L210.957 17.8651H203.249L201.716 22.7209H196.887L204.348 2.23721H209.829L217.319 22.7209H212.489ZM209.887 14.2372L208.354 9.49302C208.257 9.17674 208.127 8.77209 207.963 8.27907C207.809 7.77674 207.65 7.26977 207.486 6.75814C207.332 6.23721 207.207 5.78605 207.11 5.40465C207.014 5.78605 206.879 6.26047 206.705 6.82791C206.541 7.38605 206.382 7.91628 206.228 8.4186C206.074 8.92093 205.963 9.27907 205.895 9.49302L204.377 14.2372H209.887Z" fill="white"/>
<path d="M237 22.7209H231.91L226.372 14.1256L224.477 15.4372V22.7209H219.994V2.32093H224.477V11.6558C224.776 11.2558 225.07 10.8558 225.359 10.4558C225.649 10.0558 225.943 9.65581 226.241 9.25581L231.968 2.32093H236.942L229.567 11.3488L237 22.7209Z" fill="white"/>
<path d="M4.1411 7.40223V5.58659L9.66258 0H23.1902V1.53631L17.3926 7.40223H4.1411Z" fill="white"/>
<path d="M18.773 9.63687H5.65951L0 15.3631V17.4581H13.2515L18.773 11.8715L31.7485 25H45V23.1844L32.7147 10.7542L38.3742 5.02793V3.21229H25.1227L18.773 9.63687Z" fill="white"/>
</svg>
